<?xml version="1.0" standalone="no"?>
<!DOCTYPE svg PUBLIC "-//W3C//DTD SVG 20010904//EN"
 "http://www.w3.org/TR/2001/REC-SVG-20010904/DTD/svg10.dtd">
<svg version="1.0" xmlns="http://www.w3.org/2000/svg"
 width="157.000000pt" height="323.000000pt" viewBox="0 0 157.000000 323.000000"
 preserveAspectRatio="xMidYMid meet">
<metadata>
Created by potrace 1.15, written by Peter Selinger 2001-2017
</metadata>
<g transform="translate(0.000000,323.000000) scale(0.100000,-0.100000)"
fill="#000000" stroke="white">
<path d="M472 3210 c-176 -64 -315 -218 -389 -435 -26 -74 -28 -91 -28 -235 1
-141 3 -162 28 -235 75 -224 230 -372 443 -422 l71 -16 12 -46 c7 -25 41 -118
76 -206 100 -251 143 -426 161 -652 l7 -93 -49 6 c-27 3 -126 21 -219 40 -274
54 -416 44 -536 -38 -37 -25 -49 -39 -49 -59 0 -23 10 -29 112 -68 226 -87
346 -159 445 -265 94 -99 137 -202 176 -416 12 -62 13 -65 41 -65 26 0 31 5
48 55 57 168 87 345 95 572 l6 168 81 -6 c96 -7 304 10 396 33 36 8 89 26 118
39 48 21 53 26 50 51 -4 36 -27 40 -81 14 -108 -51 -396 -87 -528 -65 l-36 6
-7 92 c-16 224 -68 445 -153 651 -67 162 -94 245 -80 245 62 1 205 26 280 50
333 106 535 413 514 778 -19 327 -223 549 -487 530 -207 -15 -344 -194 -422
-548 -20 -93 -22 -132 -22 -340 0 -165 5 -257 15 -311 l15 -76 -49 13 c-90 23
-160 65 -233 138 -117 117 -174 264 -174 450 0 112 17 189 64 291 70 150 194
269 322 309 102 32 106 34 102 59 -2 18 -10 22 -43 24 -22 2 -64 -6 -93 -17z
m691 -95 c37 -17 75 -47 111 -87 159 -175 180 -479 50 -728 -112 -214 -319
-341 -595 -366 l-76 -7 -18 89 c-26 132 -32 410 -11 552 44 299 158 514 299
566 62 23 170 15 240 -19z m-588 -2270 c93 -19 183 -35 200 -35 16 0 41 -3 54
-7 l24 -6 -6 -161 c-6 -162 -13 -222 -44 -374 l-16 -83 -24 81 c-70 242 -215
386 -517 514 -56 24 -110 46 -121 50 -20 7 -20 7 0 18 86 49 222 50 450 3z"/>
</g>
</svg>
